<?xml version="1.0" encoding="UTF-8"?>
<svg id="Layer_1" data-name="Layer 1" xmlns="http://www.w3.org/2000/svg" viewBox="0 0 461.35 89.63">
  <defs>
    <style>
      .cls-1 {
        fill: #ffb000;
        fill-rule: evenodd;
      }
    </style>
  </defs>
  <g>
    <path class="cls-1" d="M78.96.46H11.28C5.05.46,0,5.51,0,11.74v52.64c0,6.23,5.05,11.28,11.28,11.28h28.13l5.71,13.97,5.71-13.97h28.13c6.23,0,11.28-5.05,11.28-11.28V11.74c0-6.23-5.05-11.28-11.28-11.28Z"/>
    <path d="M55.03,28.42h23.57c.76,0,1.07.97.46,1.41l-19.07,13.85c-.27.2-.39.55-.28.87l7.28,22.42c.23.72-.59,1.32-1.2.87l-19.07-13.85c-.27-.2-.64-.2-.92,0l-19.07,13.85c-.61.44-1.43-.15-1.2-.87l7.28-22.42c.1-.32,0-.67-.28-.87l-19.07-13.85c-.61-.44-.3-1.41.46-1.41h23.57c.34,0,.64-.22.74-.54l7.28-22.42c.23-.72,1.25-.72,1.48,0l7.28,22.42c.1.32.4.54.74.54Z"/>
  </g>
  <g>
    <path d="M148.45,53.16c0,1.98-.68,3.79-2.04,5.44-1.36,1.65-3.36,2.47-6,2.47l9.4,28.56h-18.54l-8.65-28.56h-2.35v28.56h-17.93V0h34c4.2,0,7.27,1.05,9.21,3.15,1.94,2.1,2.91,4.93,2.91,8.47v41.54ZM120.26,15.7v30.91h8.78c1.15,0,1.73-.62,1.73-1.85v-27.2c0-1.24-.58-1.85-1.73-1.85h-8.78Z"/>
    <path d="M156.11,0h34.86l3.09,16.69h-19.53v21.26h14.84v15.45h-14.84v19.53h18.79l-3.09,16.69h-34.12V0Z"/>
    <path d="M200.25,0h34.86l3.09,16.69h-19.53v21.26h14.84v15.45h-14.84v19.53h18.79l-3.09,16.69h-34.12V0Z"/>
    <path d="M290,35.48c0,2.23-.43,4.14-1.3,5.75s-2.49,2.74-4.88,3.4c2.47.17,4.27,1.03,5.38,2.6,1.11,1.57,1.67,3.34,1.67,5.32v23.24c0,4.95-1.03,8.49-3.09,10.63-2.06,2.14-5.69,3.21-10.88,3.21h-32.52V0h34.99c3.54,0,6.2.99,7.97,2.97,1.77,1.98,2.66,4.62,2.66,7.91v24.6ZM262.19,15.7v23.49h8.41c.66,0,1.19-.19,1.61-.56.41-.37.62-.97.62-1.79v-19.41c0-1.15-.54-1.73-1.61-1.73h-9.03ZM273.07,55.39c0-.99-.25-1.67-.74-2.04-.49-.37-1.16-.56-1.98-.56h-8.16v21.14h9.03c.74,0,1.24-.14,1.48-.43.25-.29.37-.76.37-1.42v-16.69Z"/>
    <path d="M298.28,0h34.86l3.09,16.69h-19.53v21.26h14.84v15.45h-14.84v19.53h18.79l-3.09,16.69h-34.12V0Z"/>
    <path d="M397.81,0h18.3l-14.09,89.63h-16.32l-7.42-46.73-7.29,46.73h-16.32L340.56,0h18.3l5.69,52.17,7.29-52.17h12.98l7.17,52.17,5.81-52.17Z"/>
    <path d="M425.5,89.63l-3.21-16.69h19.29c1.4,0,2.1-.62,2.1-1.85v-16.32c0-1.24-.25-1.98-.74-2.23-.49-.25-1.36-.37-2.6-.37h-9.27c-1.32,0-2.58-.1-3.77-.31-1.2-.2-2.27-.68-3.21-1.42-.95-.74-1.69-1.77-2.23-3.09-.54-1.32-.8-3.09-.8-5.32V11.62c0-3.54.97-6.37,2.91-8.47,1.94-2.1,5.01-3.15,9.21-3.15h24.73l3.09,16.69h-20.28c-1.48,0-2.23.66-2.23,1.98v16.32c0,.91.23,1.53.68,1.85.45.33,1.13.49,2.04.49h11.25c2.88,0,5.09.68,6.61,2.04,1.52,1.36,2.29,3.73,2.29,7.11v29.55c0,4.95-1.01,8.45-3.03,10.51-2.02,2.06-5.58,3.09-10.69,3.09h-22.13Z"/>
  </g>
</svg>